<svg width="40" height="40" viewBox="0 0 40 40" fill="none" xmlns="http://www.w3.org/2000/svg">
<path fill-rule="evenodd" clip-rule="evenodd" d="M26.5889 7.20917C25.2921 6.46039 24.2107 5.83601 23.2856 5.45578C22.3091 5.05445 21.3363 4.8501 20.2993 5.12796C19.2623 5.40582 18.522 6.0692 17.877 6.905C17.2659 7.69686 16.6416 8.77828 15.8929 10.0751L9.43357 21.2629C8.9993 22.0137 8.64456 22.6269 8.46525 23.2855C8.43964 23.3796 8.4176 23.4746 8.39943 23.571C8.25404 24.3427 8.37268 25.1174 8.52273 26.0972L8.56316 26.362C8.84014 28.181 9.06844 29.6802 9.41277 30.8172C9.77289 32.0062 10.3265 33.0354 11.4153 33.664C12.5041 34.2926 13.6722 34.2575 14.882 33.9748C16.0388 33.7045 17.4513 33.1526 19.165 32.483L19.4146 32.3856C20.3381 32.0257 21.0684 31.7411 21.664 31.2293C22.2596 30.7176 22.6509 30.0385 23.1458 29.1797L29.605 17.9918C30.3538 16.695 30.9782 15.6136 31.3584 14.6885C31.7597 13.712 31.9641 12.7392 31.6862 11.7022C31.4084 10.6652 30.745 9.9249 29.9092 9.27991C29.1173 8.66884 28.0359 8.04453 26.739 7.29584L26.5889 7.20917ZM26.7716 17.8994L17.3897 12.4827L11.6839 22.3654C11.0623 23.442 10.9128 23.7336 10.8562 24.0339C10.7996 24.3342 10.8328 24.6602 11.02 25.8893C11.3154 27.8289 11.5194 29.1482 11.8054 30.0925C12.0817 31.0047 12.3666 31.3265 12.6653 31.499C12.9639 31.6714 13.3851 31.7572 14.3132 31.5404C15.274 31.3159 16.5186 30.8329 18.3461 30.119C19.504 29.6666 19.8029 29.5323 20.0347 29.3331C20.2665 29.1339 20.4443 28.8587 21.0659 27.782L26.7716 17.8994ZM28.019 15.7328C28.4874 14.9074 28.8252 14.2755 29.0461 13.7381C29.3411 13.0204 29.3509 12.6459 29.2714 12.3492C29.1919 12.0526 28.9962 11.7332 28.3818 11.2591C27.7387 10.7628 26.8054 10.2209 25.414 9.41757C24.0225 8.61423 23.0865 8.07689 22.3352 7.7681C21.6175 7.4731 21.243 7.46328 20.9463 7.54278C20.6497 7.62227 20.3303 7.81798 19.8562 8.43235C19.5012 8.89232 19.1229 9.5008 18.6423 10.3192L28.019 15.7328Z" fill="url(#paint0_linear_1_341)"/>
<defs>
<linearGradient id="paint0_linear_1_341" x1="9.90626" y1="26.8769" x2="32.2034" y2="16.514" gradientUnits="userSpaceOnUse">
<stop stop-color="#00C0FF"/>
<stop offset="1" stop-color="#0C90D0"/>
</linearGradient>
</defs>
</svg>
