<svg width="36" height="35" viewBox="0 0 36 35" fill="none" xmlns="http://www.w3.org/2000/svg">
<g filter="url(#filter0_d_1_355)">
<path fill-rule="evenodd" clip-rule="evenodd" d="M18 0.291687C14.5835 0.291687 11.7635 2.8457 11.3451 6.14863C9.75207 6.2146 8.54394 6.4032 7.53437 6.96056C6.24489 7.67245 5.22669 8.78828 4.63512 10.1345C4.6169 10.1759 4.59909 10.2176 4.58168 10.2595C4.2257 11.1163 4.13083 12.0523 4.15979 13.1776C4.18829 14.2852 4.34114 15.6608 4.53656 17.4195L4.54519 17.4972C4.70486 18.9343 4.83031 20.0633 5.00289 20.9693C5.17898 21.8936 5.41517 22.6524 5.8308 23.3323C6.51687 24.4546 7.51775 25.3504 8.70893 25.9083C9.43057 26.2463 10.2108 26.3973 11.1489 26.4702C12.0684 26.5417 13.2043 26.5417 14.6502 26.5417H21.3497C22.7956 26.5417 23.9316 26.5417 24.851 26.4702C25.7891 26.3973 26.5694 26.2463 27.291 25.9083C28.4822 25.3504 29.4831 24.4546 30.1691 23.3323C30.5848 22.6524 30.821 21.8936 30.997 20.9693C31.1696 20.0634 31.2951 18.9344 31.4547 17.4974L31.4634 17.4196C31.6588 15.661 31.8116 14.2851 31.8401 13.1776C31.8691 12.0523 31.7742 11.1163 31.4182 10.2595C31.3723 10.1489 31.3235 10.0397 31.2719 9.93215C30.6696 8.67652 29.6899 7.63648 28.4656 6.96056C27.452 6.40099 26.2478 6.22377 24.6564 6.16131C24.2437 2.85225 21.4208 0.291687 18 0.291687ZM13.7457 6.12177C13.5311 6.12064 13.3223 6.11954 13.1197 6.11909C13.5353 3.80093 15.5622 2.04169 18 2.04169C20.4408 2.04169 22.4697 3.80534 22.8818 6.1278C22.3989 6.12502 21.879 6.12502 21.3194 6.12502H14.687C14.362 6.12502 14.048 6.12337 13.7457 6.12177ZM12.1832 7.87486C12.65 7.866 13.1465 7.86865 13.7058 7.87164C14.0122 7.87328 14.3375 7.87502 14.687 7.87502H21.3129C22.2748 7.87502 23.0977 7.87505 23.8169 7.88851C25.8421 7.92642 26.8655 8.07619 27.6198 8.49259C28.3401 8.8903 28.946 9.45857 29.3877 10.142L25.4893 14.0404C23.5273 16.0023 22.1168 17.4102 20.9002 18.3385C19.7038 19.2513 18.7983 19.6175 17.8584 19.6175C16.9185 19.6175 16.013 19.2513 14.8166 18.3385C13.6 17.4102 12.1895 16.0023 10.2275 14.0404L6.50419 10.3171C6.95274 9.55548 7.59913 8.92379 8.38017 8.49259C9.13507 8.07583 10.1741 7.91302 12.1832 7.87486ZM30.0517 11.9528C30.0898 12.2868 30.1026 12.6727 30.0907 13.1326C30.0644 14.1569 29.9205 15.4588 29.7195 17.2674C29.5549 18.7489 29.4363 19.8104 29.2779 20.6418C29.1216 21.4624 28.9376 21.9916 28.676 22.4195C28.1689 23.249 27.4291 23.9112 26.5487 24.3235C26.0945 24.5363 25.5483 24.6607 24.7154 24.7255C23.8716 24.7911 22.8035 24.7917 21.3129 24.7917H14.687C13.1964 24.7917 12.1283 24.7911 11.2845 24.7255C10.4516 24.6607 9.90543 24.5363 9.45122 24.3235C8.57078 23.9112 7.83101 23.249 7.32391 22.4195C7.0623 21.9916 6.87832 21.4624 6.72198 20.6418C6.5636 19.8104 6.44504 18.7489 6.28043 17.2674C6.07947 15.4588 5.93557 14.1569 5.90921 13.1326C5.90032 12.7872 5.90532 12.4835 5.92447 12.2122L9.03744 15.3252C10.9418 17.2295 12.4341 18.7219 13.7551 19.7298C15.1072 20.7614 16.382 21.3675 17.8584 21.3675C19.3348 21.3675 20.6096 20.7614 21.9617 19.7298C23.2827 18.7219 24.7751 17.2295 26.6794 15.3252L30.0517 11.9528Z" fill="#66ADFF"/>
</g>
<defs>
<filter id="filter0_d_1_355" x="0" y="0" width="36" height="36" filterUnits="userSpaceOnUse" color-interpolation-filters="sRGB">
<feFlood flood-opacity="0" result="BackgroundImageFix"/>
<feColorMatrix in="SourceAlpha" type="matrix" values="0 0 0 0 0 0 0 0 0 0 0 0 0 0 0 0 0 0 127 0" result="hardAlpha"/>
<feOffset dy="4"/>
<feGaussianBlur stdDeviation="2"/>
<feComposite in2="hardAlpha" operator="out"/>
<feColorMatrix type="matrix" values="0 0 0 0 0 0 0 0 0 0 0 0 0 0 0 0 0 0 0.25 0"/>
<feBlend mode="normal" in2="BackgroundImageFix" result="effect1_dropShadow_1_355"/>
<feBlend mode="normal" in="SourceGraphic" in2="effect1_dropShadow_1_355" result="shape"/>
</filter>
</defs>
</svg>
