<?xml version="1.0" encoding="UTF-8"?>
<svg version="1.1" xmlns="http://www.w3.org/2000/svg" width="62" height="57">
<path d="M0 0 C1.37315214 -0.01146716 2.74626157 -0.03183513 4.11914062 -0.06152344 C19.85999276 -0.4015684 19.85999276 -0.4015684 26.45068359 4.29516602 C29.12157527 8.30150352 29.15762232 11.58508029 28.45068359 16.29516602 C26.25236995 19.32732276 25.00105166 20.11171 21.45068359 21.29516602 C16.76403327 22.03961589 12.96779958 22.18758718 8.79443359 19.73266602 C6.58659411 17.99993123 4.48812214 16.22433488 2.45068359 14.29516602 C-2.74742526 19.21445078 -2.74742526 19.21445078 -4.92041016 25.81079102 C-5.06841037 31.90491754 -4.33618264 35.83676886 -0.93603516 40.93188477 C0.4831349 42.64569344 0.4831349 42.64569344 3.45068359 42.29516602 C5.47123163 40.65347073 7.47111417 38.98604823 9.45068359 37.29516602 C14.57857803 35.58586787 18.86313248 35.67778503 23.82568359 37.60766602 C26.45068359 39.29516602 26.45068359 39.29516602 28.45068359 42.29516602 C29.10630447 47.37622784 29.10630447 47.37622784 28.45068359 50.29516602 C24.36855918 54.66208981 20.25935088 57.00608681 14.31958008 57.61743164 C11.18477595 57.6927002 8.05099622 57.75742373 4.9152832 57.77563477 C2.91813135 57.79487747 0.9215447 57.85719898 -1.07470703 57.92016602 C-10.14532712 57.99255002 -17.00921342 56.50597257 -24.54931641 51.29516602 C-27.02239508 48.80719466 -28.83088209 46.34614063 -30.54931641 43.29516602 C-31.16806641 42.28454102 -31.78681641 41.27391602 -32.42431641 40.23266602 C-35.17121405 33.07757335 -34.81146606 23.32579824 -31.92431641 16.29516602 C-24.65832471 2.8048108 -14.64160111 0.08498442 0 0 Z M-18.54931641 17.29516602 C-17.54931641 19.29516602 -17.54931641 19.29516602 -17.54931641 19.29516602 Z M-19.54931641 20.29516602 C-18.54931641 23.29516602 -18.54931641 23.29516602 -18.54931641 23.29516602 Z M-20.54931641 24.29516602 C-20.54931641 26.93516602 -20.54931641 29.57516602 -20.54931641 32.29516602 C-20.21931641 32.29516602 -19.88931641 32.29516602 -19.54931641 32.29516602 C-19.54931641 29.65516602 -19.54931641 27.01516602 -19.54931641 24.29516602 C-19.87931641 24.29516602 -20.20931641 24.29516602 -20.54931641 24.29516602 Z M-19.54931641 33.29516602 C-18.54931641 35.29516602 -18.54931641 35.29516602 -18.54931641 35.29516602 Z M21.45068359 40.29516602 C22.45068359 42.29516602 22.45068359 42.29516602 22.45068359 42.29516602 Z " fill="#0090CF" transform="translate(33.54931640625,-0.295166015625)"/>
<path d="M0 0 C2.33590376 1.70350055 3.48526424 3.43366697 3.9375 6.2890625 C4.04322869 12.558774 4.04322869 12.558774 1.7890625 15.66796875 C-2.81667623 18.82618959 -8.00793065 19.15932633 -13.3984375 18.16796875 C-16.75523485 16.19338207 -19.57550487 13.84089046 -22.3984375 11.16796875 C-27.59654636 16.08725352 -27.59654636 16.08725352 -29.76953125 22.68359375 C-29.93979434 29.69442686 -28.62842894 33.63430781 -24.3984375 39.16796875 C-24.0684375 39.82796875 -23.7384375 40.48796875 -23.3984375 41.16796875 C-27.81844119 41.98321387 -31.31691847 42.52154228 -35.6484375 41.10546875 C-39.79041645 38.18725631 -42.76321405 35.0736391 -44.3984375 30.16796875 C-45.15533535 22.10409546 -44.27164322 15.19521569 -39.51171875 8.5234375 C-29.49952033 -3.41082344 -14.38573334 -7.24841004 0 0 Z " fill="#FFFFFF" transform="translate(58.3984375,2.83203125)"/>
<path d="M0 0 C3 1 3 1 5 4 C5.65562088 9.08106182 5.65562088 9.08106182 5 12 C1.04144554 16.23473268 -3.06818575 18.80217178 -8.89453125 19.1953125 C-9.85746094 19.17210938 -10.82039063 19.14890625 -11.8125 19.125 C-13.27623047 19.09792969 -13.27623047 19.09792969 -14.76953125 19.0703125 C-15.50558594 19.04710938 -16.24164063 19.02390625 -17 19 C-14.89634691 16.76608976 -12.7412854 15.12491244 -10.1875 13.4375 C-5.30891137 9.87549906 -2.75618405 5.2826861 0 0 Z " fill="#FFFFFF" transform="translate(57,38)"/>
<path d="M0 0 C2.55957235 1.43585766 3.95959748 2.80264344 6 5 C6 5.99 6 6.98 6 8 C0.25478206 8.63574133 -3.84958273 8.65093533 -8.625 5.125 C-10.6015625 3.5078125 -10.6015625 3.5078125 -12 2 C-12 1.34 -12 0.68 -12 0 C-7.80621634 -1.39792789 -4.26803563 -1.07426747 0 0 Z " fill="#0091CF" transform="translate(49,13)"/>
</svg>
