<svg width="15" height="20" viewBox="0 0 15 20" fill="none" xmlns="http://www.w3.org/2000/svg">
<path fill-rule="evenodd" clip-rule="evenodd" d="M7.29167 0C3.26459 0 0 3.26459 0 7.29167C0 9.05392 0.625889 10.6714 1.6667 11.9318L1.66666 16.8241C1.66662 17.4328 1.66658 17.9602 1.72546 18.3556C1.78484 18.7545 1.93701 19.2552 2.45231 19.4857C2.95975 19.7126 3.43617 19.5043 3.78088 19.2918C4.12573 19.0793 4.53585 18.7374 5.01266 18.34L5.83243 17.6567C6.28832 17.2767 6.58671 17.0294 6.83427 16.8704C7.06683 16.7211 7.19167 16.6922 7.29167 16.6922C7.39167 16.6922 7.51651 16.7211 7.74906 16.8704C7.99663 17.0294 8.29501 17.2767 8.75091 17.6567L9.57066 18.3399C10.0475 18.7374 10.4576 19.0793 10.8025 19.2918C11.1472 19.5043 11.6236 19.7126 12.131 19.4857C12.6463 19.2552 12.7985 18.7545 12.8579 18.3556C12.9168 17.9602 12.9167 17.4328 12.9167 16.8241L12.9166 11.9318C13.9574 10.6714 14.5833 9.05392 14.5833 7.29167C14.5833 3.26459 11.3187 0 7.29167 0ZM1.25 7.29167C1.25 3.95495 3.95495 1.25 7.29167 1.25C10.6284 1.25 13.3333 3.95495 13.3333 7.29167C13.3333 8.82433 12.7634 10.2224 11.8231 11.2878C10.7151 12.5431 9.09606 13.3333 7.29167 13.3333C5.48743 13.3333 3.86851 12.5433 2.76056 11.2881C1.82001 10.2227 1.25 8.82449 1.25 7.29167ZM2.96183 18.1716C2.91836 17.8796 2.91667 17.4474 2.91667 16.7739V13.1254C4.13509 14.0405 5.65021 14.5833 7.29167 14.5833C8.93313 14.5833 10.4482 14.0405 11.6667 13.1254V16.7739C11.6667 17.4474 11.665 17.8796 11.6215 18.1716C11.613 18.2284 11.6042 18.2715 11.5961 18.3037C11.5622 18.2879 11.517 18.2639 11.4582 18.2277C11.1993 18.0681 10.8585 17.7861 10.3336 17.3485L9.52227 16.6723C9.10337 16.3231 8.74538 16.0247 8.42455 15.8187C8.08135 15.5983 7.72013 15.4422 7.29167 15.4422C6.8632 15.4422 6.50199 15.5983 6.15878 15.8187C5.83795 16.0247 5.47996 16.3231 5.06107 16.6723L4.24977 17.3485C3.72483 17.7861 3.38407 18.0681 3.12509 18.2277C3.06631 18.2639 3.02109 18.2879 2.98728 18.3037C2.97915 18.2715 2.97029 18.2284 2.96183 18.1716ZM11.5651 18.3894C11.565 18.389 11.5665 18.3859 11.5702 18.3812C11.5671 18.3875 11.5653 18.3898 11.5651 18.3894ZM11.6721 18.3323C11.6773 18.3323 11.6802 18.3329 11.6803 18.3332C11.6805 18.3335 11.6779 18.3335 11.6721 18.3323ZM2.90299 18.3332C2.90315 18.3329 2.90604 18.3323 2.91121 18.3323C2.90541 18.3335 2.90283 18.3335 2.90299 18.3332ZM3.0182 18.3894C3.01835 18.389 3.01681 18.3859 3.0131 18.3812C3.01349 18.382 3.01386 18.3827 3.0142 18.3834C3.01663 18.388 3.01806 18.3897 3.0182 18.3894Z" fill="#34A853"/>
</svg>
