<svg width="48" height="48" viewBox="0 0 48 48" fill="none" xmlns="http://www.w3.org/2000/svg">
<rect width="48" height="48" rx="24" fill="#F8F6FF"/>
<path fill-rule="evenodd" clip-rule="evenodd" d="M24 10.2917C20.5835 10.2917 17.7635 12.8457 17.3451 16.1486C15.7521 16.2146 14.5439 16.4032 13.5344 16.9606C12.2449 17.6725 11.2267 18.7883 10.6351 20.1345C10.6169 20.1759 10.5991 20.2176 10.5817 20.2595C10.2257 21.1163 10.1308 22.0523 10.1598 23.1776C10.1883 24.2852 10.3411 25.6608 10.5366 27.4195L10.5452 27.4972C10.7049 28.9343 10.8303 30.0633 11.0029 30.9693C11.179 31.8936 11.4152 32.6524 11.8308 33.3323C12.5169 34.4546 13.5177 35.3504 14.7089 35.9083C15.4306 36.2463 16.2108 36.3973 17.1489 36.4702C18.0684 36.5417 19.2043 36.5417 20.6502 36.5417H27.3497C28.7956 36.5417 29.9316 36.5417 30.851 36.4702C31.7891 36.3973 32.5694 36.2463 33.291 35.9083C34.4822 35.3504 35.4831 34.4546 36.1691 33.3323C36.5848 32.6524 36.821 31.8936 36.997 30.9693C37.1696 30.0634 37.2951 28.9344 37.4547 27.4974L37.4634 27.4196C37.6588 25.661 37.8116 24.2851 37.8401 23.1776C37.8691 22.0523 37.7742 21.1163 37.4182 20.2595C37.3723 20.1489 37.3235 20.0397 37.2719 19.9321C36.6696 18.6765 35.6899 17.6365 34.4656 16.9606C33.452 16.401 32.2478 16.2238 30.6564 16.1613C30.2437 12.8522 27.4208 10.2917 24 10.2917ZM19.7457 16.1218C19.5311 16.1206 19.3223 16.1195 19.1197 16.1191C19.5353 13.8009 21.5622 12.0417 24 12.0417C26.4408 12.0417 28.4697 13.8053 28.8818 16.1278C28.3989 16.125 27.879 16.125 27.3194 16.125H20.687C20.362 16.125 20.048 16.1234 19.7457 16.1218ZM18.1832 17.8749C18.65 17.866 19.1465 17.8687 19.7058 17.8716C20.0122 17.8733 20.3375 17.875 20.687 17.875H27.3129C28.2748 17.875 29.0977 17.8751 29.8169 17.8885C31.8421 17.9264 32.8655 18.0762 33.6198 18.4926C34.3401 18.8903 34.946 19.4586 35.3877 20.142L31.4893 24.0404C29.5273 26.0023 28.1168 27.4102 26.9002 28.3385C25.7038 29.2513 24.7983 29.6175 23.8584 29.6175C22.9185 29.6175 22.013 29.2513 20.8166 28.3385C19.6 27.4102 18.1895 26.0023 16.2275 24.0404L12.5042 20.3171C12.9527 19.5555 13.5991 18.9238 14.3802 18.4926C15.1351 18.0758 16.1741 17.913 18.1832 17.8749ZM36.0517 21.9528C36.0898 22.2868 36.1026 22.6727 36.0907 23.1326C36.0644 24.1569 35.9205 25.4588 35.7195 27.2674C35.5549 28.7489 35.4363 29.8104 35.2779 30.6418C35.1216 31.4624 34.9376 31.9916 34.676 32.4195C34.1689 33.249 33.4291 33.9112 32.5487 34.3235C32.0945 34.5363 31.5483 34.6607 30.7154 34.7255C29.8716 34.7911 28.8035 34.7917 27.3129 34.7917H20.687C19.1964 34.7917 18.1283 34.7911 17.2845 34.7255C16.4516 34.6607 15.9054 34.5363 15.4512 34.3235C14.5708 33.9112 13.831 33.249 13.3239 32.4195C13.0623 31.9916 12.8783 31.4624 12.722 30.6418C12.5636 29.8104 12.445 28.7489 12.2804 27.2674C12.0795 25.4588 11.9356 24.1569 11.9092 23.1326C11.9003 22.7872 11.9053 22.4835 11.9245 22.2122L15.0374 25.3252C16.9418 27.2295 18.4341 28.7219 19.7551 29.7298C21.1072 30.7614 22.382 31.3675 23.8584 31.3675C25.3348 31.3675 26.6096 30.7614 27.9617 29.7298C29.2827 28.7219 30.7751 27.2295 32.6794 25.3252L36.0517 21.9528Z" fill="#66ADFF"/>
</svg>
