<svg width="18" height="19" viewBox="0 0 18 19" fill="none" xmlns="http://www.w3.org/2000/svg">
<path d="M3.97385 1.52969C4.24339 1.31406 4.28709 0.920753 4.07146 0.651215C3.85583 0.381676 3.46252 0.337975 3.19298 0.553606L1.10965 2.22027C0.840108 2.4359 0.796407 2.82921 1.01204 3.09875C1.22767 3.36829 1.62098 3.41199 1.89052 3.19636L3.97385 1.52969Z" fill="url(#paint0_linear_1_592)"/>
<path d="M14.8072 0.553606C14.5376 0.337975 14.1443 0.381676 13.9287 0.651215C13.7131 0.920753 13.7568 1.31406 14.0263 1.52969L16.1096 3.19636C16.3792 3.41199 16.7725 3.36829 16.9881 3.09875C17.2038 2.82921 17.1601 2.4359 16.8905 2.22027L14.8072 0.553606Z" fill="url(#paint1_linear_1_592)"/>
<path d="M9.62508 6.66665C9.62508 6.32147 9.34526 6.04165 9.00008 6.04165C8.6549 6.04165 8.37508 6.32147 8.37508 6.66665L8.37508 8.93785C8.37507 9.38271 8.37505 9.76107 8.40601 10.0751C8.43898 10.4096 8.51049 10.7196 8.68211 11.0169C8.85374 11.3142 9.08649 11.5311 9.3597 11.7269C9.61617 11.9107 9.94386 12.0999 10.3291 12.3223L10.8527 12.6246C11.1516 12.7972 11.5339 12.6947 11.7065 12.3958C11.8791 12.0969 11.7766 11.7146 11.4777 11.542L10.9793 11.2543C10.562 11.0134 10.2884 10.8546 10.0879 10.7109C9.89856 10.5752 9.81632 10.4814 9.76464 10.3919C9.71297 10.3024 9.67283 10.1843 9.64998 9.95246C9.62578 9.70698 9.62508 9.39056 9.62508 8.90879L9.62508 6.66665Z" fill="url(#paint2_linear_1_592)"/>
<path fill-rule="evenodd" clip-rule="evenodd" d="M9.00008 1.04165C4.05253 1.04165 0.041748 5.05243 0.041748 9.99998C0.041748 14.9475 4.05253 18.9583 9.00008 18.9583C13.9476 18.9583 17.9584 14.9475 17.9584 9.99998C17.9584 5.05243 13.9476 1.04165 9.00008 1.04165ZM1.29175 9.99998C1.29175 5.74279 4.74289 2.29165 9.00008 2.29165C13.2573 2.29165 16.7084 5.74279 16.7084 9.99998C16.7084 14.2572 13.2573 17.7083 9.00008 17.7083C4.74289 17.7083 1.29175 14.2572 1.29175 9.99998Z" fill="url(#paint3_linear_1_592)"/>
<defs>
<linearGradient id="paint0_linear_1_592" x1="1.24194" y1="14.3229" x2="17.0197" y2="5.52068" gradientUnits="userSpaceOnUse">
<stop stop-color="#00C0FF"/>
<stop offset="1" stop-color="#0C90D0"/>
</linearGradient>
<linearGradient id="paint1_linear_1_592" x1="1.24194" y1="14.3229" x2="17.0197" y2="5.52068" gradientUnits="userSpaceOnUse">
<stop stop-color="#00C0FF"/>
<stop offset="1" stop-color="#0C90D0"/>
</linearGradient>
<linearGradient id="paint2_linear_1_592" x1="1.24194" y1="14.3229" x2="17.0197" y2="5.52068" gradientUnits="userSpaceOnUse">
<stop stop-color="#00C0FF"/>
<stop offset="1" stop-color="#0C90D0"/>
</linearGradient>
<linearGradient id="paint3_linear_1_592" x1="1.24194" y1="14.3229" x2="17.0197" y2="5.52068" gradientUnits="userSpaceOnUse">
<stop stop-color="#00C0FF"/>
<stop offset="1" stop-color="#0C90D0"/>
</linearGradient>
</defs>
</svg>
