<svg width="48" height="48" viewBox="0 0 48 48" fill="none" xmlns="http://www.w3.org/2000/svg">
<rect width="48" height="48" rx="24" fill="#F8F6FF"/>
<path fill-rule="evenodd" clip-rule="evenodd" d="M16.4167 13.7917C14.3226 13.7917 12.625 15.4893 12.625 17.5834V26.9167C12.625 29.0108 14.3226 30.7084 16.4167 30.7084C17.866 30.7084 19.1255 29.8951 19.7636 28.7001C19.8678 28.8716 19.9802 29.0541 20.1012 29.2508L22.7594 33.5703C23.2265 34.3293 24.0539 34.7917 24.9451 34.7917C26.5181 34.7917 27.7209 33.3897 27.4817 31.835L27.1982 29.992C26.973 28.5283 28.1054 27.2084 29.5863 27.2084H30.391C34.0013 27.2084 36.3494 23.409 34.7349 20.1798L33.3949 17.5C32.2586 15.2273 29.9357 13.7917 27.3948 13.7917H24C22.2935 13.7917 20.7672 14.563 19.7507 15.776C19.1086 14.594 17.8563 13.7917 16.4167 13.7917ZM18.4583 17.5834C18.4583 16.4558 17.5442 15.5417 16.4167 15.5417C15.2891 15.5417 14.375 16.4558 14.375 17.5834V26.9167C14.375 28.0443 15.2891 28.9584 16.4167 28.9584C17.5442 28.9584 18.4583 28.0443 18.4583 26.9167V17.5834ZM20.3325 25.7852C20.2134 25.2628 20.2083 24.7111 20.2083 23.3396V19.3334C20.2083 17.2393 21.9059 15.5417 24 15.5417H27.3948C29.2729 15.5417 30.9898 16.6028 31.8297 18.2826L33.1696 20.9625C34.2024 23.028 32.7004 25.4584 30.391 25.4584H29.5863C27.0329 25.4584 25.0802 27.7343 25.4685 30.2581L25.7521 32.1011C25.8281 32.5957 25.4455 33.0417 24.9451 33.0417C24.6616 33.0417 24.3984 32.8946 24.2499 32.6532L21.6476 28.4244C20.9288 27.2564 20.6439 26.7839 20.4716 26.2765C20.4169 26.1152 20.3704 25.9512 20.3325 25.7852Z" fill="#FF6F6F"/>
</svg>
