<svg width="48" height="48" viewBox="0 0 48 48" fill="none" xmlns="http://www.w3.org/2000/svg">
<rect width="48" height="48" rx="24" fill="#F8F6FF"/>
<path fill-rule="evenodd" clip-rule="evenodd" d="M24 34.7917C22.2935 34.7917 20.7672 34.0204 19.7507 32.8074C19.1086 33.9893 17.8563 34.7917 16.4167 34.7917C14.3226 34.7917 12.625 33.0941 12.625 31V21.6667C12.625 19.5726 14.3226 17.875 16.4167 17.875C17.866 17.875 19.1255 18.6882 19.7636 19.8833C19.8678 19.7118 19.9801 19.5294 20.1012 19.3327L22.7594 15.013C23.2265 14.254 24.0539 13.7917 24.9451 13.7917C26.5181 13.7917 27.7209 15.1937 27.4817 16.7483L27.1982 18.5914C26.973 20.055 28.1054 21.375 29.5863 21.375H30.391C34.0013 21.375 36.3494 25.1744 34.7349 28.4035L33.3949 31.0834C32.2586 33.3561 29.9357 34.7917 27.3948 34.7917H24ZM24.2499 15.9302C24.3984 15.6888 24.6616 15.5417 24.9451 15.5417C25.4455 15.5417 25.8281 15.9877 25.7521 16.4822L25.4685 18.3253C25.0802 20.849 27.0329 23.125 29.5863 23.125H30.391C32.7004 23.125 34.2024 25.5553 33.1696 27.6209L31.8297 30.3008C30.9898 31.9806 29.2729 33.0417 27.3948 33.0417H24C21.9059 33.0417 20.2083 31.3441 20.2083 29.25V25.2438C20.2083 23.8723 20.2134 23.3206 20.3325 22.7982C20.3704 22.6321 20.4169 22.4681 20.4716 22.3068C20.6439 21.7995 20.9288 21.327 21.6476 20.1589L24.2499 15.9302ZM16.4167 19.625C17.5442 19.625 18.4583 20.5391 18.4583 21.6667V31C18.4583 32.1276 17.5442 33.0417 16.4167 33.0417C15.2891 33.0417 14.375 32.1276 14.375 31V21.6667C14.375 20.5391 15.2891 19.625 16.4167 19.625Z" fill="#78FA7C"/>
</svg>
