<svg width="20" height="20" viewBox="0 0 20 20" fill="none" xmlns="http://www.w3.org/2000/svg">
<path fill-rule="evenodd" clip-rule="evenodd" d="M16.7422 1.42399C12.2839 0.613391 7.71596 0.613391 3.25768 1.42399C1.49182 1.74505 0.208252 3.28304 0.208252 5.07785V12.0236C0.208252 14.4176 2.32052 16.2613 4.69252 15.9379C6.2466 15.726 7.8102 15.6076 9.37492 15.5827V17.9867C8.85462 18.0231 8.33671 18.1049 7.8272 18.2323L6.515 18.5604C6.18013 18.6441 5.97653 18.9834 6.06025 19.3183C6.14396 19.6532 6.4833 19.8568 6.81817 19.773L8.13037 19.445C8.74411 19.2916 9.37201 19.2148 9.99992 19.2148C10.6278 19.2148 11.2557 19.2916 11.8695 19.445L13.1817 19.773C13.5165 19.8568 13.8559 19.6532 13.9396 19.3183C14.0233 18.9834 13.8197 18.6441 13.4848 18.5604L12.1726 18.2323C11.6631 18.1049 11.1452 18.0231 10.6249 17.9867V15.5827C12.1896 15.6076 13.7532 15.726 15.3073 15.9379C17.6793 16.2613 19.7916 14.4176 19.7916 12.0236V5.07785C19.7916 3.28304 18.508 1.74505 16.7422 1.42399ZM3.48129 2.65382C7.79171 1.87011 12.2081 1.87011 16.5185 2.65382C17.69 2.86682 18.5416 3.88715 18.5416 5.07785V12.0236C18.5416 13.6601 17.0977 14.9205 15.4762 14.6994C13.6592 14.4516 11.8296 14.3277 9.99992 14.3277C8.17029 14.3277 6.34065 14.4516 4.52363 14.6994C2.90217 14.9205 1.45825 13.6601 1.45825 12.0236V5.07785C1.45825 3.88715 2.30979 2.86682 3.48129 2.65382Z" fill="url(#paint0_linear_4529_314)"/>
<defs>
<linearGradient id="paint0_linear_4529_314" x1="1.52009" y1="15.0479" x2="18.2083" y2="5.10447" gradientUnits="userSpaceOnUse">
<stop stop-color="#00C0FF"/>
<stop offset="1" stop-color="#0C90D0"/>
</linearGradient>
</defs>
</svg>
