<svg width="62" height="62" viewBox="0 0 62 62" fill="none" xmlns="http://www.w3.org/2000/svg">
<circle cx="31" cy="31" r="31" fill="#F8F6FF"/>
<path d="M20.036 25.6C20.036 24.1813 20.4467 23.0707 21.268 22.268C22.108 21.4653 23.1813 21.064 24.488 21.064C25.7947 21.064 26.8587 21.4653 27.68 22.268C28.52 23.0707 28.94 24.1813 28.94 25.6C28.94 27.0373 28.52 28.1573 27.68 28.96C26.8587 29.7627 25.7947 30.164 24.488 30.164C23.1813 30.164 22.108 29.7627 21.268 28.96C20.4467 28.1573 20.036 27.0373 20.036 25.6ZM38.012 21.4L27.008 41H23.2L34.176 21.4H38.012ZM24.46 23.416C23.4333 23.416 22.92 24.144 22.92 25.6C22.92 27.0747 23.4333 27.812 24.46 27.812C24.964 27.812 25.356 27.6347 25.636 27.28C25.916 26.9067 26.056 26.3467 26.056 25.6C26.056 24.144 25.524 23.416 24.46 23.416ZM32.328 36.772C32.328 35.3347 32.7387 34.224 33.56 33.44C34.4 32.6373 35.4733 32.236 36.78 32.236C38.0867 32.236 39.1413 32.6373 39.944 33.44C40.7653 34.224 41.176 35.3347 41.176 36.772C41.176 38.2093 40.7653 39.3293 39.944 40.132C39.1413 40.9347 38.0867 41.336 36.78 41.336C35.4547 41.336 34.3813 40.9347 33.56 40.132C32.7387 39.3293 32.328 38.2093 32.328 36.772ZM36.752 34.588C35.688 34.588 35.156 35.316 35.156 36.772C35.156 38.2467 35.688 38.984 36.752 38.984C37.7973 38.984 38.32 38.2467 38.32 36.772C38.32 35.316 37.7973 34.588 36.752 34.588Z" fill="url(#paint0_linear_1_349)"/>
<defs>
<linearGradient id="paint0_linear_1_349" x1="20.6077" y1="41.5" x2="45.6002" y2="33.2546" gradientUnits="userSpaceOnUse">
<stop stop-color="#00C0FF"/>
<stop offset="1" stop-color="#0C90D0"/>
</linearGradient>
</defs>
</svg>
