<svg width="62" height="62" viewBox="0 0 62 62" fill="none" xmlns="http://www.w3.org/2000/svg">
<circle cx="31" cy="31" r="31" fill="#F8F6FF"/>
<path fill-rule="evenodd" clip-rule="evenodd" d="M37.5889 18.2092C36.2921 17.4604 35.2107 16.836 34.2856 16.4558C33.3091 16.0544 32.3363 15.8501 31.2993 16.128C30.2623 16.4058 29.522 17.0692 28.877 17.905C28.2659 18.6969 27.6416 19.7783 26.8929 21.0751L20.4336 32.2629C19.9993 33.0137 19.6446 33.6269 19.4653 34.2855C19.4396 34.3796 19.4176 34.4746 19.3994 34.571C19.254 35.3427 19.3727 36.1174 19.5227 37.0972L19.5632 37.362C19.8401 39.181 20.0684 40.6802 20.4128 41.8172C20.7729 43.0062 21.3265 44.0354 22.4153 44.664C23.5041 45.2926 24.6722 45.2575 25.882 44.9748C27.0388 44.7045 28.4513 44.1526 30.165 43.483L30.4146 43.3856C31.3381 43.0257 32.0684 42.7411 32.664 42.2293C33.2596 41.7176 33.6509 41.0385 34.1458 40.1797L40.605 28.9918C41.3538 27.695 41.9782 26.6136 42.3584 25.6885C42.7597 24.712 42.9641 23.7392 42.6862 22.7022C42.4084 21.6652 41.745 20.9249 40.9092 20.2799C40.1173 19.6688 39.0359 19.0445 37.739 18.2958L37.5889 18.2092ZM37.7716 28.8994L28.3897 23.4827L22.6839 33.3654C22.0623 34.442 21.9128 34.7336 21.8562 35.0339C21.7996 35.3342 21.8328 35.6602 22.02 36.8893C22.3154 38.8289 22.5194 40.1482 22.8054 41.0925C23.0817 42.0047 23.3666 42.3265 23.6653 42.499C23.9639 42.6714 24.3851 42.7572 25.3132 42.5404C26.274 42.3159 27.5186 41.8329 29.3461 41.119C30.504 40.6666 30.8029 40.5323 31.0347 40.3331C31.2665 40.1339 31.4443 39.8587 32.0659 38.782L37.7716 28.8994ZM39.019 26.7328C39.4874 25.9074 39.8252 25.2755 40.0461 24.7381C40.3411 24.0204 40.3509 23.6459 40.2714 23.3492C40.1919 23.0526 39.9962 22.7332 39.3818 22.2591C38.7387 21.7628 37.8054 21.2209 36.414 20.4176C35.0225 19.6142 34.0865 19.0769 33.3352 18.7681C32.6175 18.4731 32.243 18.4633 31.9463 18.5428C31.6497 18.6223 31.3303 18.818 30.8562 19.4323C30.5012 19.8923 30.1229 20.5008 29.6423 21.3192L39.019 26.7328Z" fill="url(#paint0_linear_1_331)"/>
<defs>
<linearGradient id="paint0_linear_1_331" x1="20.9063" y1="37.8769" x2="43.2034" y2="27.514" gradientUnits="userSpaceOnUse">
<stop stop-color="#00C0FF"/>
<stop offset="1" stop-color="#0C90D0"/>
</linearGradient>
</defs>
</svg>
