<svg width="48" height="48" viewBox="0 0 48 48" fill="none" xmlns="http://www.w3.org/2000/svg">
<rect width="48" height="48" rx="24" fill="#F8F6FF"/>
<path fill-rule="evenodd" clip-rule="evenodd" d="M28.8584 14.9882C27.3292 10.2817 20.6708 10.2817 19.1416 14.9882C18.6919 16.3719 17.4024 17.3088 15.9475 17.3088C10.9988 17.3088 8.94123 23.6413 12.9448 26.5501C14.1219 27.4053 14.6144 28.9212 14.1648 30.305C12.6356 35.0114 18.0224 38.9252 22.0259 36.0164C23.203 35.1612 24.7969 35.1612 25.974 36.0164C29.9776 38.9252 35.3644 35.0114 33.8351 30.305C33.3855 28.9212 33.8781 27.4053 35.0552 26.5501C39.0587 23.6413 37.0012 17.3088 32.0525 17.3088C30.5975 17.3088 29.308 16.3719 28.8584 14.9882ZM20.8059 15.529C21.8113 12.4348 26.1887 12.4348 27.1941 15.529C27.878 17.6338 29.8394 19.0588 32.0525 19.0588C35.3059 19.0588 36.6586 23.222 34.0266 25.1343C32.2361 26.4351 31.4869 28.7409 32.1708 30.8457C33.1762 33.9399 29.6347 36.5129 27.0027 34.6006C25.2122 33.2998 22.7878 33.2998 20.9973 34.6006C18.3652 36.5129 14.8238 33.9399 15.8292 30.8457C16.5131 28.7409 15.7639 26.4351 13.9734 25.1343C11.3414 23.222 12.6941 19.0588 15.9475 19.0588C18.1606 19.0588 20.122 17.6338 20.8059 15.529Z" fill="#80BEEA"/>
</svg>
